Coordinates
version=1
nRows=17
nColumns=40
inDegrees=yes

Units are S.I. units (second, meters, Newtons, ...)
Angles are in degrees.

endheader
time	pelvis_tilt	pelvis_list	pelvis_rotation	pelvis_tx	pelvis_ty	pelvis_tz	hip_flexion_r	hip_adduction_r	hip_rotation_r	knee_angle_r	knee_angle_r_beta	ankle_angle_r	subtalar_angle_r	mtp_angle_r	hip_flexion_l	hip_adduction_l	hip_rotation_l	knee_angle_l	knee_angle_l_beta	ankle_angle_l	subtalar_angle_l	mtp_angle_l	lumbar_extension	lumbar_bending	lumbar_rotation	arm_flex_r	arm_add_r	arm_rot_r	elbow_flex_r	pro_sup_r	wrist_flex_r	wrist_dev_r	arm_flex_l	arm_add_l	arm_rot_l	elbow_flex_l	pro_sup_l	wrist_flex_l	wrist_dev_l
      0.44000000	     -3.23045560	      2.43997092	      0.86779456	     -0.61930255	      0.95457364	      1.49705053	      2.46277137	     -2.39652623	    -18.65617914	    -14.69484634	     -0.25647345	      9.01734422	      0.86848073	     -8.57436346	     24.65171530	      2.11056806	     19.22866842	    -29.36962732	     -0.51259670	      4.33703198	     13.56602869	     12.11156664	     -3.69301890	     -4.23220282	      7.84077864	      9.57659051	    -14.95078688	     -9.31837648	     26.40351017	     89.95437384	      0.00000000	      0.00000000	    -14.15507043	     13.60110200	     14.42436123	      7.32389224	     89.95437384	      0.00000000	      0.00000000
      0.45000000	     -3.51002343	      2.09000742	      0.65163583	     -0.61127257	      0.95310650	      1.49747200	      2.25063929	     -1.98790360	    -18.76336363	    -14.71265828	     -0.25678433	      9.27693910	      0.87804510	     -8.66717846	     25.36610232	      2.37816247	     19.28884212	    -27.20584357	     -0.47483155	      4.03822410	     12.79049862	     12.06745560	     -3.36358794	     -3.86725033	      8.21575221	     10.11351674	    -15.24973955	     -9.09389003	     26.93206746	     89.95437384	      0.00000000	      0.00000000	    -14.49856313	     13.59142750	     14.70196430	      7.35769565	     89.95437384	      0.00000000	      0.00000000
      0.46000000	     -3.71892643	      1.87841556	      0.38078334	     -0.60296247	      0.95172354	      1.49776886	      1.91377815	     -1.73462214	    -18.69244337	    -14.67370761	     -0.25610451	      9.57782480	      0.92440693	     -8.78597498	     25.86144605	      2.51684008	     19.31062464	    -24.92041370	     -0.43494327	      3.54305094	     11.74197532	     12.03131033	     -3.10642730	     -3.64812614	      8.56389822	     10.62704290	    -15.53092323	     -8.67379458	     27.46891836	     89.95437384	      0.00000000	      0.00000000	    -14.75297110	     13.56268830	     15.08211692	      7.21707973	     89.95437384	      0.00000000	      0.00000000
      0.47000000	     -3.38587406	      2.24919450	      0.01901585	     -0.59431261	      0.95121596	      1.49781673	      0.91608333	     -2.16228213	    -18.62993683	    -14.54688247	     -0.25389100	     10.03421247	      1.13891181	     -9.28327728	     25.49387911	      2.11358133	     20.02287973	    -22.25312396	     -0.38839028	      2.59703439	     10.10989559	     11.92441420	     -3.51519629	     -4.08894871	      8.78776633	     11.24175896	    -15.81014312	     -7.71548602	     28.14936117	     89.95437384	      0.00000000	      0.00000000	    -14.80780976	     13.51226022	     16.53079328	      6.85625009	     89.95437384	      0.00000000	      0.00000000
      0.48000000	     -3.52484458	      1.97239213	     -0.24823861	     -0.58604865	      0.94977207	      1.49803044	      0.53698657	     -1.88122082	    -18.63810828	    -14.56897426	     -0.25427657	     10.28295692	      1.45897989	     -9.54152831	     25.88945960	      2.33507357	     19.85935227	    -20.10212746	     -0.35084831	      2.30301118	      8.91667301	     11.78090297	     -3.37891517	     -3.80421864	      9.06308801	     11.78153382	    -16.03303911	     -7.39464229	     28.70404439	     89.95437384	      0.00000000	      0.00000000	    -15.01063893	     13.44614068	     17.24608319	      6.79969302	     89.95437384	      0.00000000	      0.00000000
      0.49000000	     -3.25894180	      2.09731335	     -0.59082075	     -0.57724213	      0.94884820	      1.49804980	     -0.30772083	     -2.17730244	    -19.14492058	    -14.65958359	     -0.25585800	     10.53333276	      2.57092352	    -11.75648412	     25.71507353	      2.29958237	     20.64868514	    -17.97887689	     -0.31379060	      1.58130673	      6.85458228	     10.16023185	     -3.72534244	     -4.00945169	      9.12760452	     12.49963094	    -16.21399426	     -6.51439758	     29.18921934	     89.95437384	      0.00000000	      0.00000000	    -15.00408198	     13.27478536	     20.12119774	      6.44316495	     89.95437384	      0.00000000	      0.00000000
      0.50000000	     -3.20748444	      2.07349932	     -0.90878725	     -0.56862319	      0.94768387	      1.49801789	     -0.90609700	     -2.21476123	    -19.09160464	    -14.70698091	     -0.25668524	     10.81093763	      2.64485063	    -12.17467483	     25.79321496	      2.32012946	     20.95449250	    -15.92987530	     -0.27802877	      1.10092978	      5.55200611	      9.87583378	     -3.79636498	     -4.00450588	      9.41786629	     12.97144308	    -16.37706776	     -6.21570459	     29.76954975	     89.95437384	      0.00000000	      0.00000000	    -15.11179645	     13.24763206	     20.03266481	      6.40249177	     89.95437384	      0.00000000	      0.00000000
      0.51000000	     -3.40461145	      1.89454109	     -1.15085322	     -0.56021940	      0.94599473	      1.49789335	     -1.21984180	     -2.05344262	    -18.95337508	    -14.77115382	     -0.25780527	     11.06380401	      2.75010992	    -12.32537899	     26.25980297	      2.49420405	     21.01010892	    -14.21587578	     -0.24811384	      0.84730699	      4.49427600	      9.79557866	     -3.61242515	     -3.82552595	      9.66980571	     13.37004270	    -16.54663502	     -5.98770140	     30.36752555	     89.95437384	      0.00000000	      0.00000000	    -15.17117151	     13.20773517	     20.04468172	      6.30955126	     89.95437384	      0.00000000	      0.00000000
      0.52000000	     -3.43036503	      1.83678466	     -1.49627120	     -0.55136326	      0.94454239	      1.49779755	     -1.75392392	     -2.05902516	    -18.86636930	    -14.80585462	     -0.25841091	     11.39753846	      2.83418599	    -12.50763881	     26.45293057	      2.59114742	     21.29463174	    -12.55730870	     -0.21916638	      0.36627286	      3.31866274	      9.76739187	     -3.57611524	     -3.79372368	      9.95098309	     13.76810475	    -16.63175760	     -5.77183490	     30.89879304	     89.95437384	      0.00000000	      0.00000000	    -15.22009365	     13.16075650	     20.11415978	      6.25507542	     89.95437384	      0.00000000	      0.00000000
      0.53000000	     -3.33563685	      1.91307735	     -1.80483129	     -0.54234373	      0.94331783	      1.49749352	     -2.45042751	     -2.23576786	    -18.80176271	    -14.82303978	     -0.25871085	     11.71858555	      3.03907699	    -12.73687892	     26.49090337	      2.57752197	     21.99531333	    -11.03226367	     -0.19254933	     -0.20397584	      1.98219303	      9.73866872	     -3.68307648	     -3.92356102	     10.19935514	     14.08186478	    -16.71136568	     -5.55342460	     31.53592106	     89.95437384	      0.00000000	      0.00000000	    -15.21567573	     13.14642882	     20.18181526	      6.22365778	     89.95437384	      0.00000000	      0.00000000
      0.54000000	     -2.97576700	      2.07005437	     -2.14600372	     -0.53273063	      0.94244561	      1.49710775	     -3.49793327	     -2.57714710	    -19.03240264	    -14.79694925	     -0.25825548	     11.98903950	      3.60513879	    -13.13023246	     26.23519772	      2.54269554	     23.15611277	     -9.81909511	     -0.17137554	     -0.91186686	      0.40869288	      9.58121242	     -4.03251404	     -4.16286022	     10.41485387	     14.38726627	    -16.74244080	     -5.34424954	     32.08536835	     89.95437384	      0.00000000	      0.00000000	    -15.23065226	     13.13768931	     20.10379358	      6.21994634	     89.95437384	      0.00000000	      0.00000000
      0.55000000	     -2.99548944	      1.98650215	     -2.38639018	     -0.52341459	      0.94086706	      1.49675006	     -4.11695740	     -2.59715126	    -19.11356752	    -14.77700258	     -0.25790735	     12.23071224	      3.99944134	    -13.33284860	     26.48866789	      2.67132775	     23.32958533	     -8.90776835	     -0.15546989	     -0.99406921	     -0.42776901	      9.45153090	     -3.99051366	     -4.12289766	     10.55282101	     14.62350911	    -16.72069630	     -5.18668185	     32.64803306	     89.95437384	      0.00000000	      0.00000000	    -15.21197011	     13.11145675	     20.03130136	      6.20952663	     89.95437384	      0.00000000	      0.00000000
      0.56000000	     -2.75114001	      2.20083659	     -2.64274311	     -0.51344746	      0.93980489	      1.49598689	     -5.05029649	     -3.11248237	    -19.77840472	    -14.76748287	     -0.25774120	     12.20140893	      5.27122660	    -15.70065837	     26.36898244	      2.52097664	     23.84239651	     -8.16701506	     -0.14254130	     -1.97369593	     -1.46089874	      6.31434678	     -4.16441877	     -4.40637664	     10.72265918	     14.76148806	    -16.66214818	     -5.21377978	     33.18393426	     89.95437384	      0.00000000	      0.00000000	    -15.26759105	     13.12985751	     19.62613140	      6.35922714	     89.95437384	      0.00000000	      0.00000000
      0.57000000	     -2.83756969	      2.07535814	     -2.84035607	     -0.50380702	      0.93820144	      1.49524990	     -5.56074337	     -3.11162394	    -19.76908719	    -14.87451620	     -0.25960928	     12.30261112	      5.24451128	    -15.64652146	     26.68222290	      2.69018539	     23.63391564	     -7.78784804	     -0.13592359	     -1.84332245	     -1.63693672	      6.22314129	     -4.02311212	     -4.30932120	     10.82259217	     14.88160557	    -16.60994295	     -5.18838504	     33.65060850	     89.95437384	      0.00000000	      0.00000000	    -15.22542729	     13.06554822	     19.52114946	      6.38642082	     89.95437384	      0.00000000	      0.00000000
      0.58000000	     -2.96340366	      2.07256174	     -3.07579645	     -0.49426299	      0.93656690	      1.49448393	     -5.92086593	     -3.29161004	    -19.67590496	    -15.16025649	     -0.26459639	     12.19015485	      5.09824752	    -15.42233101	     27.16181195	      2.82275815	     23.31833748	     -7.98205029	     -0.13931306	     -1.85224550	     -1.61641923	      6.12207219	     -3.83957975	     -4.35562699	     10.86507611	     15.03494428	    -16.46192082	     -5.15597266	     34.07507144	     89.95437384	      0.00000000	      0.00000000	    -15.31475049	     12.99521371	     19.43074977	      6.67351214	     89.95437384	      0.00000000	      0.00000000
      0.59000000	     -2.61824290	      2.12687257	     -3.13605315	     -0.48371166	      0.93579612	      1.49321065	     -7.15859719	     -3.54331657	    -19.91747946	    -14.88000771	     -0.25970513	     12.38283344	      5.84444789	    -15.58131426	     26.77933376	      2.64924422	     22.64607101	     -7.74672074	     -0.13520578	     -1.76957228	     -1.71389282	      5.95014492	     -4.13582342	     -4.47501602	     10.94824617	     14.73819268	    -16.45877956	     -5.22821794	     34.90471730	     89.95437384	      0.00000000	      0.00000000	    -15.05837925	     13.02524881	     19.13724423	      6.53882740	     89.95437384	      0.00000000	      0.00000000
      0.60000000	     -2.76431109	      2.14326010	     -3.35355287	     -0.47367011	      0.93422870	      1.49197242	     -7.45616208	     -3.80629447	    -19.74280897	    -15.28578848	     -0.26678734	     12.17262871	      5.65639782	    -15.29389328	     27.14444233	      2.72669449	     22.20682718	     -8.20791087	     -0.14325507	     -1.83218667	     -1.64595963	      5.83728975	     -3.87572278	     -4.51722176	     10.98469391	     14.73808880	    -16.31616835	     -5.18777866	     35.24513524	     89.95437384	      0.00000000	      0.00000000	    -15.16688894	     12.91766240	     19.04398035	      6.93285016	     89.95437384	      0.00000000	      0.00000000
